<?xml version="1.0" encoding="utf-8"?>
<!-- Generator: Adobe Illustrator 22.1.0, SVG Export Plug-In . SVG Version: 6.00 Build 0)  -->
<svg version="1.1" id="Ebene_1" xmlns="http://www.w3.org/2000/svg" xmlns:xlink="http://www.w3.org/1999/xlink" x="0px" y="0px"
	 viewBox="0 0 500 117.7" style="enable-background:new 0 0 500 117.7;" xml:space="preserve">
<style type="text/css">
	.st0{fill:#515151;}
	.st1{fill:#F39200;}
</style>
<g>
	<g>
		<path class="st0" d="M147.7,3.8h17.8l-19.3,58.8h-18.7L108.3,3.8h17.9l8,29.8c1.7,6.6,2.6,11.2,2.7,13.8c0.2-1.9,0.6-4.2,1.1-7
			c0.6-2.8,1.1-5,1.5-6.6L147.7,3.8z"/>
		<path class="st0" d="M214.4,39.7c0,7.5-2,13.3-6,17.4c-4,4.2-9.6,6.3-16.8,6.3c-6.9,0-12.4-2.1-16.5-6.4c-4.1-4.3-6.1-10-6.1-17.3
			c0-7.4,2-13.2,6-17.3c4-4.1,9.6-6.2,16.9-6.2c4.5,0,8.4,1,11.9,2.9c3.4,1.9,6.1,4.6,7.9,8.2C213.5,30.8,214.4,34.9,214.4,39.7z
			 M184.9,39.7c0,3.9,0.5,6.9,1.6,8.9c1,2.1,2.8,3.1,5.3,3.1c2.4,0,4.2-1,5.2-3.1c1-2.1,1.5-5,1.5-8.9c0-3.9-0.5-6.8-1.5-8.8
			c-1-2-2.8-3-5.2-3c-2.4,0-4.1,1-5.2,3S184.9,35.8,184.9,39.7z"/>
		<path class="st0" d="M250.9,16.2c1.4,0,2.7,0.1,3.9,0.3l0.9,0.2l-1.4,14.8c-1.3-0.3-3.1-0.5-5.3-0.5c-3.4,0-5.9,0.8-7.5,2.4
			c-1.6,1.6-2.3,3.8-2.3,6.8v22.4h-15.7V17h11.7l2.5,7.3h0.8c1.3-2.4,3.1-4.4,5.5-5.9C246.2,17,248.5,16.2,250.9,16.2z"/>
		<path class="st0" d="M277.3,37c1.9-3,3.5-5.4,4.9-7.1L292.4,17h17.5l-15.8,19.4l16.8,26.2h-18l-10-16.3l-5.1,3.9v12.4h-15.8V0
			h15.8v24.6c0,4.2-0.3,8.3-0.9,12.3H277.3z"/>
		<path class="st0" d="M346.1,62.6l-3-6h-0.3c-2.1,2.6-4.3,4.4-6.5,5.4c-2.2,1-5,1.4-8.5,1.4c-4.3,0-7.7-1.3-10.1-3.9
			c-2.5-2.6-3.7-6.2-3.7-10.9c0-4.9,1.7-8.5,5.1-10.8c3.4-2.4,8.3-3.7,14.7-4l7.6-0.2v-0.6c0-3.8-1.8-5.6-5.6-5.6
			c-3.3,0-7.5,1.1-12.7,3.4l-4.5-10.4c5.3-2.7,12-4.1,20.1-4.1c5.8,0,10.4,1.4,13.6,4.3c3.2,2.9,4.8,6.9,4.8,12.1v29.9H346.1z
			 M334.4,52.3c1.9,0,3.5-0.6,4.9-1.8c1.4-1.2,2-2.8,2-4.7v-3.5l-3.6,0.2c-5.2,0.2-7.8,2.1-7.8,5.7
			C329.9,50.9,331.4,52.3,334.4,52.3z"/>
		<path class="st0" d="M402.9,48.6c0,4.9-1.7,8.6-5,11.1c-3.3,2.5-8.1,3.7-14.3,3.7c-3.4,0-6.3-0.2-8.8-0.5c-2.5-0.4-5-1-7.6-2V48.3
			c2.4,1.1,5.1,2,8,2.7c2.9,0.7,5.5,1,7.8,1c3.4,0,5.1-0.8,5.1-2.3c0-0.8-0.5-1.5-1.4-2.2c-1-0.6-3.7-1.9-8.3-3.7
			c-4.2-1.7-7.1-3.7-8.8-5.9c-1.7-2.2-2.5-5-2.5-8.3c0-4.2,1.6-7.5,4.9-9.9c3.3-2.4,7.9-3.5,13.9-3.5c3,0,5.8,0.3,8.5,1
			c2.6,0.7,5.4,1.6,8.2,2.9l-4.3,10.1c-2.1-0.9-4.3-1.7-6.6-2.4c-2.3-0.7-4.2-1-5.7-1c-2.6,0-3.9,0.6-3.9,1.9c0,0.8,0.4,1.4,1.3,2
			c0.9,0.5,3.5,1.7,7.8,3.4c3.2,1.3,5.6,2.6,7.1,3.9c1.6,1.3,2.7,2.7,3.5,4.4C402.5,44.1,402.9,46.1,402.9,48.6z"/>
		<path class="st0" d="M446.8,48.6c0,4.9-1.7,8.6-5,11.1c-3.3,2.5-8.1,3.7-14.3,3.7c-3.4,0-6.3-0.2-8.8-0.5c-2.5-0.4-5-1-7.6-2V48.3
			c2.4,1.1,5.1,2,8,2.7c2.9,0.7,5.5,1,7.8,1c3.4,0,5.1-0.8,5.1-2.3c0-0.8-0.5-1.5-1.4-2.2c-1-0.6-3.7-1.9-8.3-3.7
			c-4.2-1.7-7.1-3.7-8.8-5.9c-1.7-2.2-2.5-5-2.5-8.3c0-4.2,1.6-7.5,4.9-9.9c3.3-2.4,7.9-3.5,13.9-3.5c3,0,5.8,0.3,8.5,1
			c2.6,0.7,5.4,1.6,8.2,2.9l-4.3,10.1c-2.1-0.9-4.3-1.7-6.6-2.4c-2.3-0.7-4.2-1-5.7-1c-2.6,0-3.9,0.6-3.9,1.9c0,0.8,0.4,1.4,1.3,2
			c0.9,0.5,3.5,1.7,7.8,3.4c3.2,1.3,5.6,2.6,7.1,3.9c1.6,1.3,2.7,2.7,3.5,4.4C446.4,44.1,446.8,46.1,446.8,48.6z"/>
		<path class="st0" d="M477.5,63.4c-7.6,0-13.5-2-17.7-6.1c-4.2-4-6.3-9.8-6.3-17.2c0-7.7,1.9-13.6,5.8-17.7
			c3.9-4.1,9.4-6.2,16.6-6.2c6.9,0,12.2,1.8,15.9,5.4c3.7,3.6,5.6,8.7,5.6,15.5v7h-28.1c0.1,2.5,1,4.5,2.8,6
			c1.8,1.4,4.1,2.2,7.2,2.2c2.8,0,5.3-0.3,7.6-0.8c2.3-0.5,4.8-1.4,7.5-2.7V60c-2.5,1.3-5,2.1-7.6,2.6
			C484.3,63.1,481.1,63.4,477.5,63.4z M476.6,26.9c-1.9,0-3.4,0.6-4.6,1.7c-1.2,1.2-2,3-2.2,5.5h13.5c-0.1-2.2-0.7-4-1.9-5.3
			C480.2,27.6,478.6,26.9,476.6,26.9z"/>
	</g>
	<g>
		<path class="st0" d="M113.3,70.9h9.6c4.3,0,7.5,0.7,9.5,2.2c2,1.5,3,3.7,3,6.6c0,2-0.6,3.7-1.9,5.1c-1.2,1.3-3,2.2-5.4,2.6v0.1
			c2.8,0.4,4.8,1.3,6.2,2.6c1.3,1.3,2,3.2,2,5.6c0,3.2-1.1,5.7-3.2,7.4c-2.1,1.7-5.2,2.6-9.1,2.6h-10.7V70.9z M115.7,86.5h7.7
			c3.3,0,5.7-0.5,7.2-1.6c1.5-1.1,2.2-2.8,2.2-5.1c0-2.3-0.8-4-2.5-5.1c-1.7-1.1-4.2-1.6-7.5-1.6h-7.1V86.5z M115.7,88.7v15.1h8.2
			c6.5,0,9.7-2.6,9.7-7.9c0-4.8-3.4-7.2-10.2-7.2H115.7z"/>
		<path class="st0" d="M159.2,105.9l-0.6-4.1h-0.2c-1.3,1.7-2.6,2.9-4,3.5c-1.4,0.7-3,1-4.9,1c-2.5,0-4.5-0.7-6-2
			c-1.4-1.3-2.1-3.1-2.1-5.4c0-2.5,1.1-4.5,3.2-5.9c2.1-1.4,5.2-2.1,9.2-2.2l4.9-0.1V89c0-2.5-0.5-4.3-1.5-5.6
			c-1-1.3-2.6-1.9-4.9-1.9c-2.4,0-4.9,0.7-7.5,2l-0.9-2.1c2.9-1.3,5.7-2,8.5-2c2.9,0,5,0.7,6.4,2.2c1.4,1.5,2.1,3.8,2.1,6.9v17.3
			H159.2z M149.6,104.2c2.8,0,5-0.8,6.6-2.4c1.6-1.6,2.4-3.8,2.4-6.6v-2.6l-4.5,0.2c-3.6,0.2-6.3,0.7-7.8,1.7s-2.3,2.5-2.3,4.5
			c0,1.6,0.5,2.9,1.5,3.8C146.4,103.8,147.8,104.2,149.6,104.2z"/>
		<path class="st0" d="M187.4,105.9V89c0-2.6-0.5-4.5-1.6-5.7c-1.1-1.2-2.8-1.8-5.1-1.8c-3.1,0-5.4,0.8-6.8,2.4
			c-1.4,1.6-2.2,4.1-2.2,7.6v14.3h-2.4v-26h2l0.5,3.6h0.1c1.7-2.7,4.7-4.1,9-4.1c5.9,0,8.8,3.2,8.8,9.5v17H187.4z"/>
		<path class="st0" d="M200.5,94.5l13.3-14.6h2.9L206.4,91l11.1,14.9h-2.8l-9.9-13.1l-4.3,3.9v9.3h-2.4V68.7h2.4v18.6l-0.2,7.1
			H200.5z"/>
		<path class="st0" d="M223.9,79.9v16.8c0,2.6,0.6,4.5,1.6,5.7c1.1,1.2,2.8,1.8,5.1,1.8c3.1,0,5.4-0.8,6.8-2.3
			c1.5-1.6,2.2-4.1,2.2-7.6V79.9h2.3v26h-2l-0.4-3.6h-0.1c-1.7,2.7-4.7,4.1-9,4.1c-5.9,0-8.9-3.2-8.9-9.5v-17H223.9z M225.9,72.7
			c0-0.7,0.1-1.3,0.4-1.6c0.2-0.3,0.6-0.5,1.1-0.5c1,0,1.5,0.7,1.5,2.1c0,1.4-0.5,2.1-1.5,2.1C226.4,74.7,225.9,74.1,225.9,72.7z
			 M235,72.7c0-0.7,0.1-1.3,0.4-1.6c0.2-0.3,0.6-0.5,1.1-0.5c1,0,1.5,0.7,1.5,2.1c0,1.4-0.5,2.1-1.5,2.1
			C235.5,74.7,235,74.1,235,72.7z"/>
		<path class="st0" d="M261.7,79.4c3.6,0,6.4,1.1,8.2,3.4c1.8,2.3,2.8,5.6,2.8,10c0,4.3-1,7.6-2.9,10s-4.7,3.5-8.2,3.5
			c-1.8,0-3.5-0.4-5-1.1c-1.5-0.8-2.7-1.8-3.5-3.3h-0.2l-0.7,3.9h-1.5V68.7h2.4V78c0,1.4,0,2.7-0.1,3.9l-0.1,2h0.2
			c1-1.6,2.2-2.7,3.6-3.4C258.1,79.8,259.8,79.4,261.7,79.4z M261.7,81.6c-3.1,0-5.3,0.9-6.6,2.6c-1.3,1.8-2,4.6-2,8.7v0.4
			c0,3.9,0.7,6.7,2.1,8.4c1.4,1.7,3.5,2.6,6.4,2.6c2.8,0,5-1,6.4-3c1.4-2,2.2-4.8,2.2-8.5C270.2,85.3,267.4,81.6,261.7,81.6z"/>
		<path class="st0" d="M290.4,106.4c-3.8,0-6.7-1.2-8.8-3.5c-2.1-2.3-3.2-5.6-3.2-9.8c0-4.1,1-7.5,3.1-10c2-2.5,4.8-3.7,8.2-3.7
			c3.1,0,5.5,1.1,7.2,3.2c1.8,2.1,2.7,5,2.7,8.7v1.9h-18.7c0,3.6,0.9,6.3,2.5,8.2c1.6,1.9,4,2.8,7,2.8c1.5,0,2.8-0.1,3.9-0.3
			c1.1-0.2,2.5-0.7,4.3-1.3v2.2c-1.5,0.6-2.8,1.1-4.1,1.3C293.3,106.3,291.9,106.4,290.4,106.4z M289.7,81.5c-2.5,0-4.5,0.8-6,2.5
			c-1.5,1.6-2.4,4-2.7,7.1h16.1c0-3-0.7-5.4-2-7.1C293.8,82.4,292,81.5,289.7,81.5z"/>
		<path class="st0" d="M317,79.4c1.1,0,2.3,0.1,3.5,0.3l-0.5,2.3c-1.1-0.3-2.2-0.4-3.4-0.4c-2.2,0-4,0.9-5.4,2.8
			c-1.4,1.9-2.1,4.3-2.1,7.1v14.3h-2.4v-26h2l0.2,4.7h0.2c1.1-1.9,2.2-3.3,3.4-4C313.8,79.8,315.3,79.4,317,79.4z"/>
		<path class="st0" d="M346.6,105.9l-5.7-17.4c-0.4-1.2-0.8-2.9-1.4-5.2h-0.1l-0.5,1.8l-1.1,3.5l-5.8,17.3h-2.3l-7.4-26h2.5
			l4.2,15.1c1,3.7,1.6,6.5,1.9,8.2h0.1c0.9-3.7,1.6-6.2,2.1-7.4l5.4-15.8h2.2l5.1,15.8c1.1,3.7,1.8,6.2,2.1,7.4h0.1
			c0.1-1,0.8-3.8,1.9-8.3l4-14.9h2.4l-7.1,26H346.6z"/>
		<path class="st0" d="M371.7,106.4c-3.8,0-6.7-1.2-8.8-3.5c-2.1-2.3-3.2-5.6-3.2-9.8c0-4.1,1-7.5,3.1-10c2-2.5,4.8-3.7,8.2-3.7
			c3.1,0,5.5,1.1,7.2,3.2c1.8,2.1,2.7,5,2.7,8.7v1.9h-18.7c0,3.6,0.9,6.3,2.5,8.2c1.6,1.9,4,2.8,7,2.8c1.5,0,2.8-0.1,3.9-0.3
			c1.1-0.2,2.5-0.7,4.3-1.3v2.2c-1.5,0.6-2.8,1.1-4.1,1.3C374.6,106.3,373.2,106.4,371.7,106.4z M371,81.5c-2.5,0-4.5,0.8-6,2.5
			c-1.5,1.6-2.4,4-2.7,7.1h16.1c0-3-0.7-5.4-2-7.1C375.2,82.4,373.3,81.5,371,81.5z"/>
		<path class="st0" d="M387.8,72.7c0-1.5,0.5-2.3,1.5-2.3c0.5,0,0.9,0.2,1.2,0.6c0.3,0.4,0.4,1,0.4,1.7c0,0.7-0.1,1.3-0.4,1.7
			c-0.3,0.4-0.7,0.6-1.2,0.6C388.3,75,387.8,74.2,387.8,72.7z M390.5,105.9h-2.4v-26h2.4V105.9z"/>
		<path class="st0" d="M415.3,99.1c0,2.3-0.9,4.1-2.7,5.4c-1.8,1.3-4.3,1.9-7.5,1.9c-3.5,0-6.2-0.5-8.3-1.6v-2.6
			c2.6,1.3,5.4,2,8.3,2c2.6,0,4.5-0.4,5.8-1.3c1.3-0.9,2-2,2-3.4c0-1.3-0.5-2.4-1.6-3.3c-1.1-0.9-2.8-1.8-5.2-2.6
			c-2.6-0.9-4.4-1.7-5.5-2.4c-1.1-0.7-1.8-1.4-2.4-2.3c-0.5-0.9-0.8-1.9-0.8-3.1c0-1.9,0.8-3.5,2.5-4.6c1.6-1.1,3.9-1.7,6.8-1.7
			c2.8,0,5.5,0.5,8,1.6l-0.9,2.2c-2.6-1.1-4.9-1.6-7.1-1.6c-2.1,0-3.8,0.4-5,1.1c-1.2,0.7-1.9,1.7-1.9,2.9c0,1.4,0.5,2.4,1.4,3.3
			c1,0.8,2.8,1.7,5.7,2.7c2.3,0.8,4,1.6,5.1,2.3c1.1,0.7,1.9,1.4,2.4,2.3C415,97,415.3,98,415.3,99.1z"/>
		<path class="st0" d="M424,79.9v16.8c0,2.6,0.5,4.5,1.6,5.7c1.1,1.2,2.8,1.8,5.1,1.8c3.1,0,5.4-0.8,6.8-2.3
			c1.5-1.6,2.2-4.1,2.2-7.6V79.9h2.3v26h-2l-0.4-3.6h-0.1c-1.7,2.7-4.7,4.1-9,4.1c-5.9,0-8.9-3.2-8.9-9.5v-17H424z"/>
		<path class="st0" d="M469,105.9V89c0-2.6-0.5-4.5-1.6-5.7c-1.1-1.2-2.8-1.8-5.1-1.8c-3.1,0-5.4,0.8-6.8,2.4
			c-1.4,1.6-2.2,4.1-2.2,7.6v14.3h-2.4v-26h2l0.5,3.6h0.1c1.7-2.7,4.7-4.1,9-4.1c5.9,0,8.8,3.2,8.8,9.5v17H469z"/>
		<path class="st0" d="M500,79.9v1.6l-5.4,0.3c1.4,1.8,2.2,3.7,2.2,5.9c0,2.5-0.8,4.5-2.5,6.1c-1.7,1.6-3.9,2.3-6.7,2.3
			c-1.2,0-2,0-2.5-0.1c-0.9,0.5-1.7,1.1-2.2,1.7c-0.5,0.7-0.7,1.4-0.7,2.1c0,0.8,0.3,1.4,0.9,1.8c0.6,0.4,1.7,0.6,3.2,0.6h4.5
			c2.8,0,5,0.6,6.5,1.7c1.5,1.1,2.2,2.8,2.2,5.1c0,2.7-1.1,4.9-3.3,6.3c-2.2,1.5-5.4,2.2-9.5,2.2c-3.3,0-5.8-0.6-7.6-1.9
			c-1.8-1.3-2.7-3-2.7-5.3c0-1.8,0.6-3.3,1.7-4.4c1.1-1.2,2.6-2,4.5-2.4c-0.8-0.3-1.4-0.8-1.9-1.4c-0.5-0.6-0.7-1.3-0.7-2.1
			c0-1.7,1.1-3.3,3.3-4.6c-1.5-0.6-2.7-1.6-3.5-2.9c-0.8-1.3-1.3-2.9-1.3-4.6c0-2.6,0.8-4.7,2.5-6.3c1.6-1.6,3.9-2.4,6.7-2.4
			c1.7,0,3,0.2,4,0.5H500z M479,110.3c0,3.6,2.7,5.4,8,5.4c6.8,0,10.2-2.2,10.2-6.5c0-1.6-0.5-2.7-1.6-3.4c-1.1-0.7-2.8-1.1-5.2-1.1
			h-4.3C481.3,104.7,479,106.5,479,110.3z M480.9,88c0,2,0.6,3.6,1.8,4.7c1.2,1.1,2.8,1.7,4.9,1.7c2.2,0,3.8-0.5,5-1.6
			c1.2-1.1,1.7-2.7,1.7-4.8c0-2.2-0.6-3.9-1.8-5c-1.2-1.1-2.8-1.7-5-1.7c-2.1,0-3.7,0.6-4.9,1.8C481.5,84.2,480.9,85.9,480.9,88z"/>
	</g>
	<g>
		<path class="st1" d="M68.3,58.3l-3,12.7H44.2c2.7,8.7,8.7,13,17.8,13c10,0,19.4-3.2,28.1-9.7v25.9c-7.2,5-16,7.4-26.2,7.4
			c-16.6,0-28.8-3.8-36.7-11.3c-7.9-7.6-12.8-16-14.5-25.3H0l3.4-12.7H11c-0.1-0.7-0.1-1.9-0.1-3.7c0-1.9,0-3.2,0.1-4H1.7L5,37.9
			h7.6c6-23.8,22.6-35.8,49.7-35.8c8.9,0,17.8,2.4,26.9,7.1l-6.3,25.2c-6.3-5.8-12.9-8.7-19.8-8.7c-9,0-15.1,4-18.2,12.1H70l-3,12.7
			H42.5c-0.1,0.9-0.1,2.3-0.1,4v3.7H68.3z"/>
	</g>
</g>
</svg>
